{
  "accessors": [
    {
      "bufferView": 2,
      "componentType": 5126,
      "count": 2540,
      "max": [
        1.4476033449172974,
        1.4771534204483032,
        2.0428402423858643
      ],
      "min": [
        -1.2518128156661987,
        -1.2523646354675293,
        0.13616350293159485
      ],
      "type": "VEC3"
    },
    {
      "bufferView": 2,
      "byteOffset": 30480,
      "componentType": 5126,
      "count": 2540,
      "max": [
        0.9912277460098267,
        0.997198760509491,
        0.9976899027824402
      ],
      "min": [
        -0.9943400025367737,
        -0.9962805509567261,
        -0.9999966621398926
      ],
      "type": "VEC3"
    },
    {
      "bufferView": 3,
      "componentType": 5126,
      "count": 2540,
      "max": [
        0.998824417591095,
        0.9996391534805298,
        0.8147901892662048,
        1.0
      ],
      "min": [
        -0.9989602565765381,
        -0.9999856352806091,
        -0.9306226968765259,
        -1.0
      ],
      "type": "VEC4"
    },
    {
      "bufferView": 1,
      "componentType": 5126,
      "count": 2540,
      "max": [
        1.2383135557174683,
        0.9917572736740112
      ],
      "min": [
        0.000736117479391396,
        0.007418335415422916
      ],
      "type": "VEC2"
    },
    {
      "bufferView": 1,
      "byteOffset": 20320,
      "componentType": 5126,
      "count": 2540,
      "max": [
        1.2383135557174683,
        0.9917572736740112
      ],
      "min": [
        0.000736117479391396,
        0.007418335415422916
      ],
      "type": "VEC2"
    },
    {
      "bufferView": 1,
      "byteOffset": 40640,
      "componentType": 5126,
      "count": 2540,
      "max": [
        1.2383135557174683,
        0.9917572736740112
      ],
      "min": [
        0.000736117479391396,
        0.007418335415422916
      ],
      "type": "VEC2"
    },
    {
      "bufferView": 0,
      "componentType": 5125,
      "count": 12288,
      "type": "SCALAR"
    }
  ],
  "asset": {
    "extras": {
      "author": "IMNT (https://sketchfab.com/IMNT)",
      "license": "CC-BY-4.0 (http://creativecommons.org/licenses/by/4.0/)",
      "source": "https://sketchfab.com/3d-models/garbage-bag-e0e9fb929170400c87c03c49a50ce315",
      "title": "Garbage Bag"
    },
    "generator": "Sketchfab-11.50.0",
    "version": "2.0"
  },
  "bufferViews": [
    {
      "buffer": 0,
      "byteLength": 49152,
      "name": "floatBufferViews",
      "target": 34963
    },
    {
      "buffer": 0,
      "byteLength": 60960,
      "byteOffset": 49152,
      "byteStride": 8,
      "name": "floatBufferViews",
      "target": 34962
    },
    {
      "buffer": 0,
      "byteLength": 60960,
      "byteOffset": 110112,
      "byteStride": 12,
      "name": "floatBufferViews",
      "target": 34962
    },
    {
      "buffer": 0,
      "byteLength": 40640,
      "byteOffset": 171072,
      "byteStride": 16,
      "name": "floatBufferViews",
      "target": 34962
    }
  ],
  "buffers": [
    {
      "byteLength": 211712,
      "uri": "scene.bin"
    }
  ],
  "images": [
    {
      "uri": "textures/trash_baseColor.jpeg"
    },
    {
      "uri": "textures/trash_metallicRoughness.png"
    },
    {
      "uri": "textures/trash_normal.png"
    }
  ],
  "materials": [
    {
      "doubleSided": true,
      "name": "trash",
      "normalTexture": {
        "index": 2
      },
      "pbrMetallicRoughness": {
        "baseColorTexture": {
          "index": 0
        },
        "metallicFactor": 0.0,
        "metallicRoughnessTexture": {
          "index": 1
        }
      }
    }
  ],
  "meshes": [
    {
      "name": "Sphere_trash_0",
      "primitives": [
        {
          "attributes": {
            "NORMAL": 1,
            "POSITION": 0,
            "TANGENT": 2,
            "TEXCOORD_0": 3,
            "TEXCOORD_1": 4,
            "TEXCOORD_2": 5
          },
          "indices": 6,
          "material": 0,
          "mode": 4
        }
      ]
    }
  ],
  "nodes": [
    {
      "children": [
        1
      ],
      "matrix": [
        1.0,
        0.0,
        0.0,
        0.0,
        0.0,
        2.220446049250313e-16,
        -1.0,
        0.0,
        0.0,
        1.0,
        2.220446049250313e-16,
        0.0,
        0.0,
        0.0,
        0.0,
        1.0
      ],
      "name": "Sketchfab_model"
    },
    {
      "children": [
        2
      ],
      "matrix": [
        0.009999999776482582,
        0.0,
        0.0,
        0.0,
        0.0,
        0.0,
        0.009999999776482582,
        0.0,
        0.0,
        -0.009999999776482582,
        0.0,
        0.0,
        0.0,
        0.0,
        0.0,
        1.0
      ],
      "name": "1ebc19b3be5d43f997c1653229f15da7.fbx"
    },
    {
      "children": [
        3
      ],
      "name": "RootNode"
    },
    {
      "children": [
        4
      ],
      "matrix": [
        100.0,
        0.0,
        0.0,
        0.0,
        0.0,
        -1.629206793918314e-05,
        -99.99999999999868,
        0.0,
        0.0,
        99.99999999999868,
        -1.629206793918314e-05,
        0.0,
        0.0,
        0.0,
        0.0,
        1.0
      ],
      "name": "Sphere"
    },
    {
      "mesh": 0,
      "name": "Sphere_trash_0"
    }
  ],
  "samplers": [
    {
      "magFilter": 9729,
      "minFilter": 9987,
      "wrapS": 10497,
      "wrapT": 10497
    }
  ],
  "scene": 0,
  "scenes": [
    {
      "name": "Sketchfab_Scene",
      "nodes": [
        0
      ]
    }
  ],
  "textures": [
    {
      "sampler": 0,
      "source": 0
    },
    {
      "sampler": 0,
      "source": 1
    },
    {
      "sampler": 0,
      "source": 2
    }
  ]
}
